<?xml version="1.0" encoding="iso-8859-1"?>
<!-- Generator: Adobe Illustrator 18.1.1, SVG Export Plug-In . SVG Version: 6.00 Build 0)  -->
<svg version="1.1" id="Capa_1" xmlns="http://www.w3.org/2000/svg" xmlns:xlink="http://www.w3.org/1999/xlink" x="0px" y="0px"
	 viewBox="0 0 51.066 51.066" style="enable-background:new 0 0 51.066 51.066;" xml:space="preserve">
<g>
	<g>
		<path style="fill:#010002;" d="M25.533,0C15.457,0,7.262,8.199,7.262,18.271c0,9.461,13.676,19.698,17.63,32.338
			c0.085,0.273,0.34,0.459,0.626,0.457c0.287-0.004,0.538-0.192,0.619-0.467c3.836-12.951,17.666-22.856,17.667-32.33
			C43.803,8.199,35.607,0,25.533,0z M25.533,32.131c-7.9,0-14.328-6.429-14.328-14.328c0-7.9,6.428-14.328,14.328-14.328
			c7.898,0,14.327,6.428,14.327,14.328C39.86,25.702,33.431,32.131,25.533,32.131z"/>
	</g>
</g>
<g>
</g>
<g>
</g>
<g>
</g>
<g>
</g>
<g>
</g>
<g>
</g>
<g>
</g>
<g>
</g>
<g>
</g>
<g>
</g>
<g>
</g>
<g>
</g>
<g>
</g>
<g>
</g>
<g>
</g>
</svg>
